<!DOCTYPE svg PUBLIC "-//W3C//DTD SVG 20010904//EN" "http://www.w3.org/TR/2001/REC-SVG-20010904/DTD/svg10.dtd">
<svg version="1.0" xmlns="http://www.w3.org/2000/svg" width="1351px" height="1549px" viewBox="0 0 10470 12000" preserveAspectRatio="xMidYMid meet">
<g id="layer101" fill="#010101" stroke="none">
<path d="M9938 11800 c-70 -61 -134 -110 -141 -110 -8 0 -59 12 -113 26 -196 52 -215 56 -220 52 -2 -3 25 -75 61 -161 36 -86 65 -159 65 -162 0 -5 -167 -264 -176 -274 -2 -3 -17 7 -32 20 -62 57 -41 73 -274 -202 -117 -138 -296 -349 -397 -468 -101 -119 -344 -405 -540 -636 -195 -231 -587 -692 -869 -1025 -283 -333 -544 -641 -582 -685 -37 -44 -137 -161 -221 -261 -85 -99 -224 -263 -309 -363 -85 -101 -273 -323 -417 -492 l-262 -309 -59 49 c-68 56 -64 45 -82 266 -28 346 -41 505 -55 670 -8 99 -20 239 -25 310 -6 72 -19 240 -30 375 -11 135 -22 265 -26 289 l-6 44 -101 -7 c-56 -4 -163 -13 -237 -19 l-134 -12 2 -50 c2 -27 12 -156 22 -285 11 -129 27 -320 36 -425 8 -104 21 -264 29 -355 8 -91 17 -203 20 -250 3 -47 10 -132 16 -190 5 -58 14 -159 19 -224 l9 -119 -47 -58 c-26 -32 -51 -58 -57 -58 -9 -1 -68 48 -370 304 -136 116 -1425 1209 -1590 1348 -66 56 -192 163 -280 238 -88 75 -344 292 -570 483 -225 191 -436 369 -467 397 -31 27 -59 49 -62 49 -3 0 -44 -47 -92 -105 -48 -58 -90 -105 -93 -105 -3 0 -30 72 -59 160 l-53 159 99 133 c54 73 102 139 107 147 7 12 -18 13 -168 8 -205 -6 -171 -23 -292 151 -95 136 -100 142 -110 105 -3 -16 -26 -92 -51 -169 l-45 -141 -142 -43 c-226 -69 -220 -49 -52 -168 l145 -103 0 -174 c0 -96 2 -175 5 -175 3 0 66 46 141 102 l137 102 164 -55 164 -54 -57 -69 c-55 -66 -56 -69 -38 -86 16 -14 799 -680 1274 -1081 63 -54 421 -357 795 -674 674 -571 738 -626 1073 -910 108 -92 170 -151 165 -158 -4 -7 -27 -35 -51 -63 l-44 -52 -146 -11 c-81 -7 -223 -19 -317 -27 -93 -8 -199 -16 -235 -19 -36 -2 -144 -11 -240 -20 -96 -8 -290 -24 -430 -35 -523 -41 -520 -41 -520 -64 0 -12 7 -119 17 -239 l17 -218 71 6 c38 3 178 14 310 25 132 11 321 27 420 35 99 8 268 22 375 30 107 9 295 25 417 35 311 28 295 29 362 -27 31 -26 58 -48 60 -49 5 -4 -5 -15 -332 -400 -423 -496 -502 -590 -1553 -1829 -692 -816 -839 -988 -954 -1125 -36 -42 -193 -227 -349 -411 -368 -433 -356 -418 -498 -588 -68 -80 -120 -148 -115 -152 4 -3 85 -72 181 -153 l174 -148 23 24 c12 12 230 268 484 568 480 567 580 685 766 904 62 72 333 392 604 711 270 319 511 603 534 630 38 44 324 382 844 995 86 101 198 232 247 290 50 58 138 163 198 233 59 70 113 127 120 127 6 -1 36 -22 65 -49 l52 -48 10 -104 c5 -57 14 -165 20 -239 5 -74 17 -216 25 -315 8 -99 22 -261 30 -360 8 -99 22 -261 30 -360 8 -99 20 -243 25 -320 15 -203 12 -195 68 -195 26 0 121 7 212 15 91 8 175 15 188 15 20 0 22 5 22 54 0 30 -4 98 -10 152 -11 111 -33 383 -55 669 -8 105 -17 210 -20 235 -3 25 -12 133 -20 240 -9 107 -22 276 -30 374 l-14 179 47 58 c26 32 52 57 59 56 7 -1 79 -58 160 -127 81 -70 373 -317 648 -550 275 -233 538 -457 585 -496 47 -40 346 -294 665 -564 319 -271 591 -502 605 -514 14 -11 84 -71 155 -131 72 -60 216 -183 322 -272 105 -90 194 -163 197 -163 3 0 27 26 53 58 26 33 95 114 152 181 87 103 101 125 90 136 -8 7 -95 81 -194 165 -99 83 -218 184 -265 224 -47 40 -398 337 -780 661 -1718 1457 -2069 1755 -2075 1765 -3 4 17 34 45 67 l49 59 208 17 c114 10 316 26 448 37 132 11 321 27 420 35 99 8 263 22 365 30 348 27 455 37 461 41 4 2 4 44 1 94 -2 49 -2 90 2 90 3 0 62 -32 130 -70 l124 -71 5 -67 c4 -37 9 -113 13 -170 4 -56 10 -104 14 -107 4 -2 64 48 134 112 l128 116 164 -37 c90 -21 168 -36 173 -34 5 2 -22 71 -60 153 -38 83 -69 155 -69 161 0 6 36 71 81 144 45 74 83 140 86 147 7 17 -50 17 -187 -2 -165 -23 -143 -32 -271 115 -62 72 -117 130 -121 130 -4 0 -8 -10 -8 -22 -1 -13 -15 -90 -33 -172 l-32 -149 -139 -58 c-77 -33 -141 -57 -143 -55 -3 2 -9 53 -15 113 -5 59 -11 110 -13 112 -2 2 -62 -2 -132 -8 -70 -7 -209 -18 -308 -26 -99 -8 -288 -24 -420 -34 -132 -11 -301 -25 -375 -31 -74 -6 -207 -17 -295 -25 -88 -8 -208 -17 -268 -21 l-107 -6 -58 47 c-31 26 -57 51 -57 55 0 6 371 451 501 599 17 20 175 205 350 412 176 207 416 490 534 629 118 140 305 360 415 490 110 130 463 546 785 924 322 379 626 737 675 795 50 59 137 163 195 231 153 180 200 235 278 328 l70 84 -72 61 c-39 34 -95 82 -125 107 l-55 45 135 12 c74 6 146 12 160 12 22 1 44 -20 135 -134 60 -74 112 -131 116 -127 4 4 23 76 43 159 40 171 43 183 56 183 5 0 48 15 97 34 48 19 115 45 149 58 35 12 63 26 63 30 0 4 -39 30 -87 59 -49 29 -116 70 -149 92 l-62 39 -7 174 c-4 96 -10 174 -14 174 -3 0 -63 -50 -133 -110z m-4516 -5468 c135 -115 257 -218 272 -229 14 -12 26 -26 26 -32 0 -6 -89 -116 -198 -244 -109 -127 -211 -249 -227 -269 -17 -21 -33 -38 -38 -38 -4 0 -56 42 -115 93 -60 50 -183 155 -275 232 -144 122 -164 142 -154 157 25 35 452 537 458 537 4 1 117 -93 251 -207z"/>
<path d="M4865 9748 c-2 -7 -18 -58 -35 -113 -17 -55 -39 -125 -49 -154 l-17 -55 -159 -48 c-88 -27 -163 -52 -167 -56 -4 -4 58 -53 137 -110 l145 -102 -7 -175 c-3 -96 -3 -175 1 -175 4 0 69 47 146 105 l138 104 162 -55 c89 -31 164 -53 168 -50 3 4 -18 75 -46 159 -29 83 -52 158 -52 164 0 7 45 74 100 148 55 74 100 137 100 140 0 3 -80 5 -177 5 l-178 1 -95 135 c-52 75 -98 138 -103 141 -4 2 -9 -2 -12 -9z"/>
<path d="M1856 6303 c-6 -21 -42 -192 -57 -275 -7 -37 -16 -58 -27 -61 -24 -7 -276 -113 -296 -124 -14 -8 11 -26 136 -97 l154 -87 16 -170 c9 -94 19 -173 22 -176 4 -4 158 129 216 187 3 3 15 13 26 23 24 20 -3 24 254 -37 57 -14 106 -23 108 -21 2 2 -18 52 -46 112 -27 59 -60 131 -72 160 l-22 52 90 148 c56 93 85 149 77 151 -7 2 -76 -4 -153 -12 -78 -9 -152 -16 -166 -16 -20 0 -49 28 -137 130 -61 72 -113 130 -115 130 -1 0 -5 -8 -8 -17z"/>
<path d="M5694 3326 c-73 -47 -218 -134 -238 -142 -10 -4 -77 20 -171 61 -86 38 -157 66 -160 64 -2 -3 14 -80 37 -171 l40 -167 -23 -29 c-13 -16 -66 -76 -117 -133 l-93 -104 33 -6 c18 -4 95 -10 171 -14 90 -5 142 -12 150 -20 7 -7 51 -76 96 -154 46 -78 85 -140 87 -138 2 2 33 74 68 161 36 87 66 159 68 161 2 1 68 17 148 34 80 17 155 34 168 37 13 2 22 8 20 13 -2 4 -61 57 -132 117 l-128 109 6 65 c15 143 26 283 23 286 -2 2 -26 -11 -53 -30z"/>
<path d="M9366 2940 c-3 -8 -21 -87 -39 -175 l-32 -160 -81 -35 c-44 -19 -118 -50 -164 -69 -98 -40 -106 -26 87 -137 74 -42 136 -82 138 -88 2 -6 9 -84 16 -173 7 -90 16 -163 20 -163 5 0 66 52 135 115 84 77 132 114 143 111 36 -12 324 -76 327 -74 1 2 -31 75 -71 163 -63 139 -71 163 -61 180 108 174 167 277 164 281 -5 4 -285 -22 -324 -31 -17 -4 -40 18 -120 111 -54 64 -107 126 -116 137 -14 18 -18 19 -22 7z"/>
<path d="M545 993 c-48 -81 -88 -149 -89 -150 -1 -1 -75 -7 -166 -13 -91 -6 -171 -14 -178 -16 -8 -2 34 -56 103 -134 63 -72 115 -134 115 -138 0 -4 -18 -79 -40 -166 -22 -88 -39 -163 -38 -167 2 -4 75 24 162 62 l159 70 51 -32 c169 -106 247 -151 252 -147 3 3 -2 66 -10 139 -22 190 -22 207 11 232 121 96 234 201 222 207 -8 4 -81 22 -164 40 -82 18 -155 38 -162 44 -6 6 -37 76 -68 156 -32 80 -61 149 -65 153 -4 5 -47 -58 -95 -140z"/>
</g>
<g id="layer102" fill="#ebe0c8" stroke="none">
<path d="M9917 11697 l-99 -83 -86 23 c-48 13 -104 27 -125 32 -45 11 -45 15 14 -123 22 -49 39 -96 39 -103 0 -8 -30 -59 -66 -115 -36 -55 -63 -102 -61 -105 3 -2 60 0 128 6 68 5 125 9 125 8 1 -1 36 -45 79 -97 42 -52 79 -94 83 -93 3 1 20 57 37 124 l30 122 112 41 c61 23 115 44 118 48 3 3 -44 36 -104 73 l-111 67 -1 77 c-1 42 -4 100 -7 128 l-7 53 -98 -83z"/>
<path d="M799 9933 l-35 -118 -122 -39 c-67 -22 -122 -42 -122 -45 1 -3 45 -37 100 -75 l99 -70 3 -132 3 -133 104 79 105 78 109 -39 c60 -22 115 -39 123 -39 9 0 1 36 -28 120 l-40 120 75 102 75 103 -129 3 -129 3 -71 99 c-39 55 -74 100 -78 100 -4 0 -22 -53 -42 -117z"/>
<path d="M4866 9534 c-52 -172 -36 -153 -170 -196 -65 -20 -120 -39 -122 -41 -2 -2 43 -36 101 -76 l104 -73 3 -130 3 -129 101 75 101 76 118 -40 c65 -22 121 -38 123 -35 2 2 -14 57 -36 121 l-40 117 70 94 c38 52 71 100 74 108 5 11 -17 13 -123 8 l-128 -5 -53 79 c-29 43 -63 91 -75 107 l-24 29 -27 -89z"/>
<path d="M8306 6493 c-34 -170 -25 -158 -153 -211 -62 -26 -113 -50 -113 -54 0 -3 49 -34 109 -67 l109 -61 7 -92 c4 -51 10 -110 14 -130 l6 -37 93 86 94 86 125 -27 c68 -16 126 -27 127 -25 2 2 -21 56 -50 119 -47 101 -52 117 -40 135 52 82 118 196 115 199 -2 2 -60 -3 -128 -10 -69 -8 -128 -11 -131 -7 -57 68 -155 179 -160 181 -4 1 -15 -37 -24 -85z"/>
<path d="M1870 6059 c-27 -138 -19 -129 -155 -184 -49 -20 -94 -40 -98 -44 -4 -5 41 -36 102 -71 l110 -63 6 -76 c4 -42 10 -101 14 -131 l6 -54 70 64 c39 36 82 75 96 88 l26 23 107 -26 c158 -37 152 -39 110 53 -20 42 -43 95 -51 117 l-16 40 62 104 c34 57 60 106 57 109 -3 2 -60 -1 -127 -7 -67 -7 -125 -9 -129 -4 -4 4 -40 46 -80 93 -40 47 -76 86 -79 88 -4 1 -18 -52 -31 -119z"/>
<path d="M5554 3165 l-101 -65 -113 50 c-62 28 -115 48 -118 45 -3 -3 7 -59 23 -125 l28 -120 -59 -66 c-78 -88 -107 -124 -103 -129 3 -2 59 -7 127 -11 l123 -7 59 -101 c33 -56 62 -105 64 -111 7 -16 23 12 67 122 47 116 29 104 202 139 48 10 87 21 87 25 0 4 -43 42 -95 85 -95 79 -95 79 -90 119 12 105 17 215 9 214 -5 0 -54 -29 -110 -64z"/>
<path d="M9400 2807 c0 -21 -42 -214 -49 -233 -6 -14 -45 -36 -126 -69 -75 -31 -112 -51 -103 -56 7 -5 58 -34 113 -66 l100 -58 8 -110 c12 -161 8 -158 102 -73 45 40 87 78 95 85 12 9 42 5 135 -16 66 -16 121 -25 123 -21 1 4 -20 57 -47 119 l-50 112 64 106 c36 58 63 108 61 111 -3 2 -60 -1 -127 -8 l-123 -12 -30 33 c-17 19 -57 64 -88 99 -32 36 -58 61 -58 57z"/>
<path d="M558 891 c-70 -121 -69 -121 -184 -121 -28 0 -72 -3 -97 -6 l-46 -7 84 -94 c47 -53 85 -100 85 -107 0 -6 -14 -63 -30 -126 -16 -63 -28 -115 -27 -117 1 -1 54 21 117 48 62 27 117 49 120 49 4 0 33 -17 66 -38 32 -21 81 -51 108 -67 l49 -29 -7 80 c-4 43 -9 102 -13 129 l-5 51 96 79 c53 43 96 82 96 85 0 4 -55 19 -122 34 -67 15 -123 28 -124 29 -1 1 -23 55 -49 120 -26 64 -49 117 -50 117 -2 0 -32 -49 -67 -109z"/>
</g>
<g id="layer103" fill="#ffffff" stroke="none">
<path d="M9248 11052 c-79 -90 -273 -319 -1768 -2082 -310 -366 -663 -782 -785 -925 -122 -143 -412 -485 -645 -760 -233 -275 -448 -528 -478 -562 l-54 -63 -62 51 c-33 28 -76 65 -95 82 l-35 30 -37 451 c-21 248 -52 622 -69 831 -18 209 -34 419 -37 467 -3 47 -9 92 -14 99 -6 11 -38 11 -176 0 -92 -7 -168 -13 -169 -14 -1 -1 2 -45 6 -97 5 -52 25 -297 45 -545 21 -247 52 -623 69 -835 l32 -384 -75 -90 c-42 -49 -81 -91 -88 -93 -6 -2 -42 22 -80 54 -37 32 -111 95 -163 139 -100 84 -200 169 -675 572 -159 136 -465 395 -680 577 -214 182 -568 481 -785 666 -217 184 -514 435 -660 558 -146 123 -272 230 -281 238 -14 12 -28 -1 -121 -109 -57 -68 -107 -128 -111 -134 -8 -13 -4 -16 638 -560 436 -369 1325 -1123 2263 -1918 232 -197 422 -361 422 -363 0 -3 -35 -47 -77 -98 l-78 -93 -70 -6 c-252 -22 -492 -42 -1035 -86 -338 -27 -645 -52 -682 -56 l-68 -6 0 -32 c0 -17 5 -95 12 -173 9 -116 15 -143 27 -143 8 0 65 4 125 10 61 5 224 19 361 30 458 36 1108 90 1232 101 l122 11 90 -76 c50 -42 93 -80 95 -85 3 -4 -86 -116 -197 -247 -112 -131 -571 -673 -1022 -1204 -450 -531 -931 -1098 -1069 -1260 -137 -162 -285 -335 -327 -385 -76 -90 -417 -491 -919 -1083 -146 -172 -263 -316 -262 -320 8 -15 257 -220 263 -216 7 4 150 172 1458 1714 432 509 821 968 866 1020 45 52 144 169 221 260 76 90 178 209 225 265 47 55 262 309 479 565 217 256 432 509 478 563 l83 97 91 -76 c49 -42 93 -86 98 -98 5 -12 18 -145 30 -296 11 -151 36 -459 55 -685 18 -225 41 -504 50 -620 9 -115 18 -219 20 -230 4 -20 7 -20 172 -7 92 7 170 16 174 20 3 4 -5 129 -17 277 -12 149 -32 385 -43 525 -12 140 -28 336 -37 435 -44 518 -50 611 -43 625 5 8 41 54 82 101 l74 87 79 -67 c43 -37 288 -244 544 -461 256 -217 566 -480 690 -585 124 -105 434 -368 690 -585 256 -217 508 -430 560 -475 236 -202 756 -642 766 -648 8 -4 55 44 124 125 106 126 110 132 93 148 -10 10 -169 145 -353 301 -184 156 -510 432 -724 614 -214 181 -450 382 -525 445 -75 63 -372 315 -661 560 -289 245 -641 543 -782 663 -142 120 -260 222 -263 228 -4 5 29 52 72 103 l78 93 70 7 c39 3 264 22 500 41 795 65 1300 107 1302 109 5 4 -25 337 -30 343 -5 4 -354 -22 -812 -62 -93 -8 -285 -24 -425 -35 -140 -11 -339 -28 -442 -37 l-187 -16 -95 79 c-52 43 -95 82 -95 85 -1 5 138 171 634 754 122 143 513 604 870 1025 357 421 775 914 929 1095 318 374 860 1013 1162 1370 112 132 203 245 201 250 -1 6 -59 58 -128 117 l-127 108 -84 -98z m-3758 -4692 c176 -149 321 -274 323 -278 6 -10 -536 -647 -550 -647 -14 0 -653 537 -650 547 3 10 547 648 553 648 3 0 148 -122 324 -270z"/>
</g>


</svg>